<?xml version="1.0" encoding="utf-8"?>
<svg viewBox="0 0 512 512" xmlns="http://www.w3.org/2000/svg"><g id="Layer_32">
<g>
<path d="M217.024,50.054c-0.236,0.236-0.369,0.559-0.369,0.89v1.888c-0.004,2.078-1.689,3.764-3.772,3.769h-6.472    c-2.083-0.005-3.768-1.691-3.774-3.769v-1.888c0-0.336-0.131-0.652-0.367-0.89c-0.237-0.238-0.552-0.369-0.89-0.369h-21.815    c-0.331,0-0.656,0.133-0.89,0.369c-0.233,0.236-0.366,0.559-0.366,0.89v1.888c-0.006,2.078-1.692,3.764-3.774,3.769h-6.473    c-2.081-0.005-3.768-1.691-3.773-3.769v-1.888c0-0.336-0.128-0.652-0.366-0.89c-0.238-0.238-0.554-0.369-0.89-0.369l-15.465-0.001    l-0.001,20.564c0,3.471,2.814,6.285,6.288,6.285h73.239c3.471,0,6.282-2.814,6.282-6.285l0.004-20.555l-15.467-0.008    C217.583,49.686,217.259,49.819,217.024,50.054z" fill="#010101"/>
<path d="M164.195,42.534c0.125-1.974,1.748-3.538,3.743-3.538h6.599c1.993,0,3.615,1.564,3.741,3.538    c0.041,0.661,0.592,1.181,1.255,1.181h21.881c0.661,0,1.21-0.52,1.252-1.181c0.129-1.974,1.749-3.538,3.743-3.538h6.475    c1.996,0,3.616,1.564,3.742,3.538c0.042,0.661,0.591,1.181,1.254,1.181l15.5-0.003l-0.002-7.041c0-3.473-2.814-6.285-6.286-6.285    v-0.002h-18.201v-0.091V23.74c0-5.555-4.5-10.058-10.057-10.058h-16.554c-5.557,0-10.057,4.502-10.06,10.058v6.552v0.091    l-18.368,0.002c-3.474,0-6.289,2.812-6.289,6.285l-0.007,7.04l15.381,0.001C163.604,43.711,164.153,43.195,164.195,42.534z     M178.718,30.383v-0.091v-6.63c0.005-1.388,1.127-2.512,2.515-2.514l18.653-0.003c1.388,0.005,2.51,1.128,2.513,2.517l0.001,6.63    v0.091H178.718z" fill="#010101"/>
</g>
</g></svg>