<?xml version="1.0" encoding="utf-8"?>
<svg viewBox="0 0 512 512" xmlns="http://www.w3.org/2000/svg"><g id="power">
<g>
<path d="M67.429,24.782c-0.25-0.134-0.559-0.042-0.694,0.206l-1.955,3.598c-0.064,0.119-0.08,0.259-0.041,0.39    c0.039,0.13,0.127,0.239,0.247,0.304c6.777,3.681,10.987,10.752,10.987,18.455c0,11.572-9.414,20.986-20.985,20.986    s-20.986-9.414-20.986-20.986c0-7.702,4.209-14.773,10.985-18.454c0.249-0.135,0.34-0.446,0.205-0.694l-1.954-3.598    c-0.065-0.12-0.174-0.208-0.304-0.247c-0.131-0.039-0.27-0.024-0.39,0.041c-8.425,4.577-13.66,13.372-13.66,22.951    c0,14.394,11.71,26.104,26.104,26.104c14.393,0,26.104-11.71,26.104-26.104C81.091,38.154,75.856,29.359,67.429,24.782z"/>
<path d="M52.94,46.609h4.094c0.283,0,0.512-0.229,0.512-0.512V14.364c0-0.283-0.229-0.512-0.512-0.512H52.94    c-0.283,0-0.512,0.229-0.512,0.512v31.733C52.428,46.381,52.657,46.609,52.94,46.609z"/>
</g>
</g></svg>