<?xml version="1.0" encoding="utf-8"?>
<svg viewBox="0 0 512 512" xmlns="http://www.w3.org/2000/svg"><g id="user_home">
<path d="M94.294,124.398L56.053,92.872c-0.886-0.731-2.157-0.731-3.043,0l-38.241,31.527   c-0.781,0.643-1.072,1.703-0.729,2.655c0.34,0.95,1.238,1.583,2.25,1.583h13.196v25.287c0,5.635,4.567,10.203,10.203,10.203h29.683   c5.635,0,10.203-4.567,10.203-10.203v-25.287h13.197c1.01,0,1.91-0.634,2.25-1.583C95.365,126.101,95.073,125.042,94.294,124.398z    M39.689,132.589c0-2.05,1.661-3.71,3.71-3.71c2.05,0,3.711,1.66,3.711,3.71c0,2.049-1.661,3.71-3.711,3.71   C41.351,136.299,39.689,134.638,39.689,132.589z M65.773,149.398c-0.24,0.194-4.384,4.459-11.244,4.523   c-0.008,0.001-0.016,0.001-0.025,0.001c-3.399-0.001-6.047-1.161-7.78-2.321c-1.745-1.17-2.633-2.327-2.768-2.5   c-0.924-1.231-0.674-2.975,0.557-3.898c1.218-0.915,2.945-0.677,3.872,0.529h0h0c0.005,0.005,0.017,0.022,0.038,0.045   c0.045,0.052,0.128,0.145,0.246,0.265c0.24,0.239,0.625,0.582,1.142,0.926c1.047,0.69,2.565,1.384,4.717,1.39   c3.974,0.05,7.08-2.647,7.308-2.896v-0.001l0.005-0.005l0.001,0.003c1.087-1.083,2.843-1.082,3.929,0.004   C66.86,146.548,66.86,148.311,65.773,149.398z M65.662,136.299c-2.05,0-3.711-1.661-3.711-3.71c0-2.05,1.661-3.71,3.711-3.71   c2.049,0,3.71,1.66,3.71,3.71C69.372,134.638,67.711,136.299,65.662,136.299z" fill="#010101"/>
</g></svg>