<?xml version="1.0" encoding="utf-8"?>
<svg viewBox="0 0 512 512" xmlns="http://www.w3.org/2000/svg"><g id="Layer_19_copy">
<g>
<path d="M173.247,143.462c0-1.465,0.17-2.891,0.49-4.259l8.393,4.443c0.108,0.057,0.227,0.085,0.345,0.085    c0.143,0,0.284-0.041,0.408-0.123c0.225-0.148,0.351-0.41,0.327-0.678l-2.278-26.282c-0.021-0.252-0.166-0.471-0.389-0.589    c-0.222-0.117-0.486-0.114-0.706,0.009l-23.014,12.895c-0.237,0.132-0.38,0.381-0.376,0.652c0.003,0.27,0.153,0.516,0.391,0.644    l7.9,4.181c-0.941,2.837-1.455,5.869-1.455,9.021c0,14.851,11.301,27.062,25.771,28.505l0.577-9.965    C180.399,160.867,173.247,153.002,173.247,143.462z" fill="#010101"/>
<path d="M227.518,155.262l-8.055-3.856c0.727-2.523,1.119-5.188,1.119-7.944c0-14.852-11.3-27.062-25.771-28.505    l-0.577,9.965c9.233,1.134,16.385,9,16.385,18.54c0,1.213-0.124,2.396-0.346,3.545l-8.566-4.101    c-0.244-0.118-0.532-0.091-0.751,0.068c-0.219,0.158-0.333,0.421-0.3,0.691l3.336,26.169c0.032,0.248,0.187,0.463,0.413,0.572    c0.101,0.048,0.209,0.072,0.317,0.072c0.135,0,0.269-0.037,0.388-0.109l22.476-13.813c0.23-0.142,0.364-0.397,0.351-0.667    C227.922,155.618,227.762,155.378,227.518,155.262z" fill="#010101"/>
</g>
</g></svg>