<?xml version="1.0" encoding="utf-8"?>
<svg viewBox="0 0 512 512" xmlns="http://www.w3.org/2000/svg"><g id="user">
<path d="M70.023,297.77H39.039c-5.882,0-10.651,4.769-10.651,10.65v30.985c0,5.882,4.769,10.651,10.651,10.651   h30.985c5.882,0,10.651-4.77,10.651-10.651V308.42C80.674,302.539,75.906,297.77,70.023,297.77z M39.039,317.135   c0-2.139,1.734-3.873,3.874-3.873c2.139,0,3.873,1.734,3.873,3.873s-1.734,3.873-3.873,3.873   C40.773,321.008,39.039,319.274,39.039,317.135z M66.267,334.682c-0.251,0.203-4.577,4.655-11.737,4.722   c-0.009,0.001-0.017,0.001-0.026,0.001c-3.548-0.001-6.313-1.211-8.122-2.424c-1.822-1.221-2.749-2.428-2.89-2.609   c-0.964-1.285-0.703-3.105,0.582-4.068c1.272-0.955,3.075-0.707,4.042,0.553h0.001c0,0,0,0,0,0   c0.004,0.006,0.018,0.022,0.039,0.047c0.047,0.055,0.134,0.151,0.257,0.276c0.25,0.249,0.652,0.606,1.191,0.966   c1.093,0.722,2.678,1.445,4.925,1.451c4.148,0.053,7.39-2.764,7.629-3.023h0l0.006-0.006l0.001,0.002   c1.135-1.131,2.968-1.129,4.101,0.005C67.402,331.707,67.402,333.547,66.267,334.682z M66.15,321.008   c-2.139,0-3.873-1.734-3.873-3.873s1.734-3.873,3.873-3.873c2.139,0,3.873,1.734,3.873,3.873S68.289,321.008,66.15,321.008z" fill="#010101"/>
</g></svg>