<?xml version="1.0" encoding="utf-8"?>
<svg viewBox="0 0 512 512" xmlns="http://www.w3.org/2000/svg"><g id="add_user">
<path d="M70.023,203.39H39.039c-5.882,0-10.651,4.769-10.651,10.651v30.985c0,5.882,4.769,10.651,10.651,10.651   h30.985c5.882,0,10.651-4.769,10.651-10.651v-30.985C80.674,208.158,75.906,203.39,70.023,203.39z M39.039,222.755   c0-2.139,1.734-3.873,3.874-3.873c2.139,0,3.873,1.734,3.873,3.873c0,2.139-1.734,3.874-3.873,3.874   C40.773,226.628,39.039,224.894,39.039,222.755z M66.267,240.301c-0.251,0.203-4.577,4.656-11.737,4.722   c-0.009,0.001-0.017,0.001-0.026,0.001c-3.548-0.001-6.313-1.211-8.122-2.423c-1.822-1.221-2.749-2.428-2.89-2.61   c-0.964-1.285-0.703-3.105,0.582-4.068c1.272-0.955,3.075-0.707,4.042,0.553h0.001c0,0,0,0,0,0   c0.004,0.005,0.018,0.022,0.039,0.047c0.047,0.055,0.134,0.151,0.257,0.276c0.25,0.25,0.652,0.607,1.191,0.966   c1.093,0.721,2.678,1.445,4.925,1.451c4.148,0.053,7.39-2.763,7.629-3.023l0,0l0.006-0.006l0.001,0.002   c1.135-1.13,2.968-1.128,4.101,0.005C67.402,237.326,67.402,239.167,66.267,240.301z M66.15,226.628   c-2.139,0-3.873-1.735-3.873-3.874c0-2.139,1.734-3.873,3.873-3.873c2.139,0,3.873,1.734,3.873,3.873   C70.023,224.894,68.289,226.628,66.15,226.628z" fill="#010101"/>
<path d="M106.861,189.398H95.924v-10.937c0-0.671-0.544-1.215-1.215-1.215h-6.076c-0.671,0-1.215,0.544-1.215,1.215   v10.937H76.481c-0.671,0-1.215,0.544-1.215,1.215v6.076c0,0.672,0.544,1.215,1.215,1.215h10.937v10.937   c0,0.672,0.544,1.215,1.215,1.215h6.076c0.671,0,1.215-0.543,1.215-1.215v-10.937h10.937c0.671,0,1.215-0.543,1.215-1.215v-6.076   C108.076,189.942,107.532,189.398,106.861,189.398z" fill="#010101"/>
</g></svg>